
          <svg xmlns="http://www.w3.org/2000/svg"
               width="511" height="511" viewBox="0 0 511 511">
            <style>
              line:hover { stroke-width: 5 }
              path:hover { stroke-width: 5 }
            </style>
          <text x="412" y="261" transform="rotate(-360.0 412 261)" style="fill: #b3059e; font-size: 12pt">VIN7</text>

      <circle cx="406" cy="256" r="5"
              stroke="#ffffff" stroke-width="1" fill="#ffffff"/>
      <text x="379" y="353" transform="rotate(-324.0 379 353)" style="fill: #0583b5; font-size: 12pt">BE017</text>

      <circle cx="377" cy="344" r="5"
              stroke="#ffffff" stroke-width="1" fill="#ffffff"/>
      <text x="298" y="407" transform="rotate(-288.0 298 407)" style="fill: #07b825; font-size: 12pt">ABI1525</text>

      <circle cx="302" cy="398" r="5"
              stroke="#ffffff" stroke-width="1" fill="#ffffff"/>
      <text x="191" y="468" transform="rotate(-72.0 191 468)" style="fill: #07b825; font-size: 12pt">ABI1606</text>

      <circle cx="209" cy="398" r="5"
              stroke="#ffffff" stroke-width="1" fill="#ffffff"/>
      <text x="90" y="381" transform="rotate(-36.0 90 381)" style="fill: #1082e6; font-size: 12pt">BR005</text>

      <circle cx="134" cy="344" r="5"
              stroke="#ffffff" stroke-width="1" fill="#ffffff"/>
      <text x="32" y="260" transform="rotate(-0.0 32 260)" style="fill: #e3ad74; font-size: 12pt">ABI1620</text>

      <circle cx="106" cy="256" r="5"
              stroke="#ffffff" stroke-width="1" fill="#ffffff"/>
      <text x="87" y="138" transform="rotate(36.0 87 138)" style="fill: #e3ad74; font-size: 12pt">BE108</text>

      <circle cx="134" cy="167" r="5"
              stroke="#ffffff" stroke-width="1" fill="#ffffff"/>
      <text x="189" y="64" transform="rotate(71.99999999999997 189 64)" style="fill: #e3ad74; font-size: 12pt">BE109</text>

      <circle cx="209" cy="113" r="5"
              stroke="#ffffff" stroke-width="1" fill="#ffffff"/>
      <text x="310" y="108" transform="rotate(-72.0 310 108)" style="fill: #e3ad74; font-size: 12pt">BE105</text>

      <circle cx="302" cy="113" r="5"
              stroke="#ffffff" stroke-width="1" fill="#ffffff"/>
      <text x="386" y="168" transform="rotate(-36.0 386 168)" style="fill: #e3ad74; font-size: 12pt">BE116</text>

      <circle cx="377" cy="167" r="5"
              stroke="#ffffff" stroke-width="1" fill="#ffffff"/>
    
          <line x1="255.5" y1="255.5" x2="220" y2="267" stroke="#000000" stroke-width="3"/>
        
          <line x1="292" y1="256" x2="312" y2="256" stroke="#000000" stroke-width="3"/>
        
          <line x1="312" y1="256" x2="400" y2="256" stroke="#000000" stroke-width="3"/>
        
          <line x1="220" y1="256" x2="199" y2="256" stroke="#000000" stroke-width="3"/>
        
          <line x1="272" y1="308" x2="279" y2="327" stroke="#000000" stroke-width="3"/>
        
          <line x1="315" y1="299" x2="331" y2="311" stroke="#000000" stroke-width="3"/>
        
          <line x1="331" y1="311" x2="373" y2="341" stroke="#000000" stroke-width="3"/>
        
          <line x1="256" y1="329" x2="256" y2="349" stroke="#000000" stroke-width="3"/>
        
          <line x1="284" y1="343" x2="290" y2="362" stroke="#07b825" stroke-width="3"/>
        
          <line x1="290" y1="362" x2="300" y2="393" stroke="#07b825" stroke-width="3"/>
        
          <line x1="227" y1="343" x2="221" y2="362" stroke="#07b825" stroke-width="3"/>
        
          <line x1="221" y1="362" x2="211" y2="393" stroke="#07b825" stroke-width="3"/>
        
      <path d="M 227 345 A 93.75 93.75 0 0 0 284 345"
            fill="none" stroke="#07b825" stroke-width="3"/>
        
      <path d="M 256 330 A 75.0 75.0 0 0 0 316 300"
            fill="none" stroke="#000000" stroke-width="3"/>
        
          <line x1="223" y1="211" x2="211" y2="195" stroke="#000000" stroke-width="3"/>
        
          <line x1="196" y1="299" x2="180" y2="311" stroke="#000000" stroke-width="3"/>
        
          <line x1="180" y1="311" x2="138" y2="341" stroke="#000000" stroke-width="3"/>
        
          <line x1="233" y1="186" x2="227" y2="166" stroke="#000000" stroke-width="3"/>
        
          <line x1="168" y1="227" x2="149" y2="221" stroke="#e3ad74" stroke-width="3"/>
        
          <line x1="144" y1="256" x2="124" y2="256" stroke="#e3ad74" stroke-width="3"/>
        
          <line x1="124" y1="256" x2="110" y2="256" stroke="#e3ad74" stroke-width="3"/>
        
          <line x1="166" y1="190" x2="149" y2="178" stroke="#e3ad74" stroke-width="3"/>
        
          <line x1="149" y1="178" x2="138" y2="170" stroke="#e3ad74" stroke-width="3"/>
        
      <path d="M 164 189 A 112.5 112.5 0 0 0 143 256"
            fill="none" stroke="#e3ad74" stroke-width="3"/>
        
          <line x1="284" y1="168" x2="290" y2="149" stroke="#e3ad74" stroke-width="3"/>
        
          <line x1="221" y1="150" x2="215" y2="131" stroke="#e3ad74" stroke-width="3"/>
        
          <line x1="215" y1="131" x2="211" y2="118" stroke="#e3ad74" stroke-width="3"/>
        
          <line x1="321" y1="166" x2="333" y2="149" stroke="#e3ad74" stroke-width="3"/>
        
          <line x1="296" y1="132" x2="300" y2="118" stroke="#e3ad74" stroke-width="3"/>
        
          <line x1="360" y1="179" x2="373" y2="170" stroke="#e3ad74" stroke-width="3"/>
        
      <path d="M 362 178 A 131.25 131.25 0 0 0 296 131"
            fill="none" stroke="#e3ad74" stroke-width="3"/>
        
      <path d="M 322 164 A 112.5 112.5 0 0 0 221 149"
            fill="none" stroke="#e3ad74" stroke-width="3"/>
        
      <path d="M 284 166 A 93.75 93.75 0 0 0 166 227"
            fill="none" stroke="#e3ad74" stroke-width="3"/>
        
      <path d="M 232 184 A 75.0 75.0 0 0 0 195 300"
            fill="none" stroke="#000000" stroke-width="3"/>
        
      <path d="M 222 210 A 56.25 56.25 0 0 0 273 309"
            fill="none" stroke="#000000" stroke-width="3"/>
        
      <path d="M 218 256 A 37.5 37.5 0 0 0 293 256"
            fill="none" stroke="#000000" stroke-width="3"/>
          <text x="24" y="26.1" transform="rotate(0 24 26.1)" style="fill: #e3ad74; font-size: 12pt">Trappist</text>
  <text x="24" y="42.1" transform="rotate(0 24 42.1)" style="fill: #1082e6; font-size: 12pt">Bread</text>
  <text x="24" y="58.1" transform="rotate(0 24 58.1)" style="fill: #07b825; font-size: 12pt">Lambic</text>
  <text x="24" y="74.1" transform="rotate(0 24 74.1)" style="fill: #0583b5; font-size: 12pt">Belgian ale</text>
  <text x="24" y="90.1" transform="rotate(0 24 90.1)" style="fill: #b3059e; font-size: 12pt">Wine</text>
</svg>
